PathFileType	4	(X/Y/Z)	/home/nbianco/projects/addbio/data/HamnerRunning2013/Processed/subject19//results/MarkerData/run200.trc
DataRate	CameraRate	NumFrames	NumMarkers	Units	OrigDataRate	OrigDataStartFrame	OrigNumFrames
120.005	120.005	9	42	m	120.005	205	274
Frame#	Time	C7			CLAV			LACR			LASI			LCAL			LFAradius			LFAsuperior			LFAulna			LLEL			LMEL			LMT5			LPSI			LTB1			LTB2			LTB3			LTH1			LTH2			LTH3			LTOE			LUA1			LUA2			LUA3			RACR			RASI			RCAL			RFAradius			RFAsuperior			RFAulna			RLEL			RMEL			RMT5			RPSI			RTB1			RTB2			RTB3			RTH1			RTH2			RTH3			RTOE			RUA1			RUA2			RUA3		
		X1	Y1	Z1	X2	Y2	Z2	X3	Y3	Z3	X4	Y4	Z4	X5	Y5	Z5	X6	Y6	Z6	X7	Y7	Z7	X8	Y8	Z8	X9	Y9	Z9	X10	Y10	Z10	X11	Y11	Z11	X12	Y12	Z12	X13	Y13	Z13	X14	Y14	Z14	X15	Y15	Z15	X16	Y16	Z16	X17	Y17	Z17	X18	Y18	Z18	X19	Y19	Z19	X20	Y20	Z20	X21	Y21	Z21	X22	Y22	Z22	X23	Y23	Z23	X24	Y24	Z24	X25	Y25	Z25	X26	Y26	Z26	X27	Y27	Z27	X28	Y28	Z28	X29	Y29	Z29	X30	Y30	Z30	X31	Y31	Z31	X32	Y32	Z32	X33	Y33	Z33	X34	Y34	Z34	X35	Y35	Z35	X36	Y36	Z36	X37	Y37	Z37	X38	Y38	Z38	X39	Y39	Z39	X40	Y40	Z40	X41	Y41	Z41	X42	Y42	Z42

206	1.875	1.01125	1.48445	-0.30263	1.12506	1.39632	-0.282511	1.0374	1.45718	-0.4817	1.07224	0.966195	-0.426541	0.823164	0.316473	-0.372395	1.03713	1.04068	-0.504559	0.907896	1.17664	-0.573229	0.983933	1.0057	-0.531343	0.84033	1.23018	-0.569631	0.82138	1.22894	-0.498793	0.910449	0.140082	-0.456447	0.90192	1.0039	-0.369378	1.16125	0.406512	-0.406135	1.05584	0.38492	-0.45063	0.996448	0.302843	-0.389817	1.05061	0.798547	-0.486067	1.1719	0.744634	-0.470608	1.16025	0.608457	-0.4619	0.942299	0.146366	-0.3526	0.9859	1.39357	-0.52901	0.917669	1.35587	-0.491009	0.943722	1.29811	-0.547787	1.06532	1.4317	-0.113763	1.06317	0.974532	-0.186606	0.745533	0.100828	-0.287831	1.13622	0.963183	-0.0808518	1.01789	1.09458	-0.0392057	1.07961	0.92222	-0.0838974	0.933701	1.14282	-0.0439182	0.911882	1.14031	-0.107725	0.942409	0.0463559	-0.210599	0.894772	1.00775	-0.27039	1.03185	0.344293	-0.26716	0.961881	0.31347	-0.206796	0.926131	0.197261	-0.273235	1.00465	0.813583	-0.139014	1.08179	0.673053	-0.172157	1.02515	0.576662	-0.191555	0.954628	0.0747507	-0.318193	1.04105	1.34234	-0.0714649	1.04468	1.25303	-0.0893072	0.958792	1.25318	-0.0670245
207	1.88333	1.01153	1.48981	-0.303037	1.12546	1.40219	-0.28434	1.0352	1.46301	-0.481924	1.0722	0.971257	-0.425953	0.838756	0.303923	-0.372445	1.03156	1.04906	-0.50743	0.901252	1.18533	-0.572578	0.977928	1.01421	-0.532898	0.834165	1.23895	-0.567224	0.816909	1.23773	-0.496082	0.93656	0.132647	-0.455608	0.901986	1.00971	-0.369056	1.17213	0.412369	-0.405967	1.0678	0.385147	-0.450698	1.01258	0.300054	-0.389212	1.05134	0.80483	-0.486814	1.1734	0.753141	-0.470943	1.16427	0.616981	-0.462993	0.967601	0.140918	-0.352757	0.982365	1.40063	-0.528648	0.914397	1.36361	-0.489974	0.93891	1.30555	-0.547123	1.06788	1.43815	-0.114886	1.06385	0.978871	-0.186037	0.730231	0.105684	-0.287076	1.1479	0.978246	-0.0847673	1.02439	1.10328	-0.0397141	1.09332	0.935029	-0.0872752	0.938477	1.1486	-0.043107	0.916578	1.14614	-0.107181	0.92541	0.0459269	-0.211438	0.895773	1.0132	-0.26942	1.01705	0.347381	-0.267361	0.947083	0.316952	-0.206947	0.911261	0.200509	-0.273064	1.0008	0.817607	-0.139651	1.07425	0.675481	-0.173477	1.01447	0.580672	-0.192262	0.938384	0.0755365	-0.318627	1.04427	1.34888	-0.0721842	1.0484	1.25963	-0.0899717	0.962679	1.25937	-0.0662046
208	1.89167	1.0119	1.4956	-0.303492	1.12597	1.40859	-0.286197	1.03313	1.46943	-0.482115	1.07258	0.977172	-0.425662	0.855084	0.290838	-0.372504	1.02653	1.0585	-0.509842	0.895146	1.19475	-0.571913	0.972732	1.02359	-0.534271	0.828514	1.2483	-0.565051	0.812643	1.24705	-0.493635	0.963492	0.125332	-0.454386	0.902169	1.01612	-0.368707	1.18245	0.41814	-0.405479	1.07959	0.385019	-0.450722	1.02884	0.297103	-0.388455	1.05264	0.811996	-0.48781	1.1748	0.761783	-0.470887	1.16755	0.62558	-0.463978	0.993437	0.135817	-0.35259	0.979028	1.40834	-0.528354	0.911401	1.37176	-0.488999	0.934401	1.31363	-0.54657	1.0704	1.445	-0.116037	1.06455	0.983494	-0.185984	0.7155	0.111671	-0.286369	1.15842	0.993858	-0.0890828	1.03043	1.1127	-0.0402487	1.10593	0.948681	-0.0905348	0.943052	1.15504	-0.0421805	0.92118	1.15263	-0.106423	0.908459	0.045148	-0.212789	0.896928	1.01896	-0.268894	1.00262	0.351426	-0.267411	0.932704	0.321328	-0.206889	0.896744	0.204579	-0.272915	0.997083	0.822116	-0.140479	1.06723	0.678618	-0.174908	1.00433	0.585417	-0.192816	0.922401	0.0761918	-0.319112	1.04734	1.35592	-0.0729523	1.05187	1.26667	-0.0906426	0.966411	1.26614	-0.06529
209	1.9	1.01232	1.50168	-0.303938	1.12655	1.41538	-0.28802	1.03124	1.47629	-0.482251	1.07329	0.983895	-0.425679	0.872231	0.277378	-0.37255	1.02201	1.06858	-0.511687	0.889645	1.20465	-0.571216	0.968219	1.03345	-0.535448	0.823421	1.25804	-0.563053	0.808624	1.25677	-0.491398	0.991087	0.118272	-0.452887	0.902448	1.02302	-0.368338	1.1921	0.423903	-0.40492	1.09126	0.384516	-0.450728	1.04532	0.294072	-0.387962	1.0544	0.820012	-0.488973	1.17607	0.770422	-0.470694	1.16987	0.633998	-0.464655	1.0198	0.13126	-0.351913	0.975957	1.41652	-0.528102	0.908658	1.38035	-0.488005	0.930269	1.32222	-0.546103	1.07292	1.45212	-0.117224	1.06517	0.988429	-0.186316	0.701468	0.118743	-0.285815	1.16781	1.00978	-0.0936753	1.03605	1.12264	-0.0408457	1.11747	0.962798	-0.0935832	0.947389	1.16203	-0.0411744	0.92559	1.15967	-0.105533	0.891727	0.0443265	-0.214194	0.898045	1.02508	-0.268717	0.988674	0.356325	-0.267177	0.918811	0.32652	-0.206537	0.882681	0.209422	-0.272605	0.993804	0.82715	-0.141326	1.06067	0.682365	-0.176281	0.994748	0.590807	-0.193108	0.906728	0.0766982	-0.319485	1.05032	1.36331	-0.0737577	1.05512	1.274	-0.0913265	0.970023	1.27335	-0.0643054
210	1.90833	1.0128	1.50792	-0.304356	1.12718	1.4224	-0.28977	1.02959	1.48342	-0.482329	1.07409	0.99115	-0.425812	0.890284	0.263724	-0.372548	1.01804	1.07896	-0.513053	0.884753	1.21478	-0.570517	0.964301	1.0435	-0.5364	0.818889	1.26799	-0.56119	0.804937	1.26677	-0.489338	1.01913	0.111554	-0.451254	0.902852	1.03024	-0.367996	1.20093	0.429668	-0.404584	1.10282	0.383696	-0.450745	1.06204	0.29104	-0.387857	1.05642	0.828721	-0.490167	1.1771	0.778939	-0.470683	1.17102	0.641996	-0.464872	1.04661	0.127363	-0.350752	0.973228	1.42504	-0.527854	0.906187	1.38937	-0.486999	0.926558	1.33112	-0.545706	1.07544	1.45941	-0.118496	1.06572	0.993711	-0.186722	0.688256	0.126781	-0.285427	1.17611	1.02583	-0.0983489	1.04127	1.13297	-0.0415357	1.12795	0.977066	-0.0963884	0.951458	1.16948	-0.040116	0.929586	1.16712	-0.104551	0.875328	0.0438712	-0.215117	0.89906	1.03157	-0.26861	0.975402	0.361892	-0.266568	0.90549	0.332384	-0.205906	0.86926	0.214923	-0.271995	0.991205	0.832685	-0.142017	1.0545	0.686617	-0.177448	0.985741	0.596749	-0.193104	0.89141	0.0771227	-0.319617	1.05326	1.37093	-0.0745887	1.05818	1.28148	-0.0920609	0.973539	1.28094	-0.0632717
211	1.91667	1.01334	1.51429	-0.304772	1.12784	1.42951	-0.291434	1.02824	1.49063	-0.482367	1.07472	0.99859	-0.425845	0.909304	0.25009	-0.372473	1.0146	1.08939	-0.514132	0.880423	1.22492	-0.569859	0.960925	1.05356	-0.537105	0.814903	1.27794	-0.559478	0.801688	1.27691	-0.487438	1.04738	0.105142	-0.449539	0.903412	1.03759	-0.367724	1.20885	0.43534	-0.404606	1.11421	0.382655	-0.450802	1.07893	0.288056	-0.387959	1.05845	0.837831	-0.491264	1.1778	0.787227	-0.471048	1.17091	0.649431	-0.464577	1.07371	0.124096	-0.349221	0.970909	1.43374	-0.527593	0.904054	1.39873	-0.486046	0.923282	1.34015	-0.545374	1.07795	1.46677	-0.119865	1.06625	0.999258	-0.186993	0.675962	0.135617	-0.285136	1.18337	1.0418	-0.102931	1.0461	1.14354	-0.0423104	1.13743	0.991253	-0.0989872	0.955251	1.17725	-0.0390273	0.932953	1.17481	-0.103472	0.859229	0.0440575	-0.215275	0.900024	1.03829	-0.268366	0.963007	0.367892	-0.265562	0.892836	0.338729	-0.205094	0.856705	0.220914	-0.271026	0.989343	0.838592	-0.142469	1.04866	0.69127	-0.178302	0.977308	0.603133	-0.192822	0.876469	0.0775099	-0.319475	1.0562	1.37867	-0.0754171	1.06107	1.28904	-0.0928464	0.97695	1.28883	-0.0622245
212	1.925	1.01401	1.52075	-0.305231	1.12852	1.43659	-0.293023	1.02724	1.49777	-0.482413	1.07511	1.00601	-0.425744	0.929283	0.236733	-0.372336	1.0117	1.09971	-0.515091	0.876588	1.23486	-0.569264	0.958059	1.06347	-0.537565	0.811444	1.28772	-0.557958	0.798951	1.28703	-0.485674	1.07556	0.0988526	-0.447587	0.904143	1.04491	-0.367523	1.21583	0.440762	-0.404891	1.12537	0.381473	-0.450934	1.0959	0.285158	-0.388033	1.06025	0.846938	-0.492174	1.17807	0.795188	-0.471754	1.16964	0.656276	-0.463819	1.10083	0.121234	-0.34732	0.96903	1.44245	-0.527336	0.902331	1.40822	-0.485195	0.920428	1.34915	-0.545107	1.08041	1.47415	-0.121282	1.06683	1.00488	-0.187131	0.664655	0.145072	-0.284852	1.18966	1.05745	-0.107332	1.05057	1.15423	-0.043126	1.14597	1.00519	-0.101479	0.958791	1.1852	-0.0379276	0.935618	1.18257	-0.102294	0.843289	0.0449031	-0.214756	0.901026	1.04505	-0.267985	0.951606	0.374112	-0.264209	0.880921	0.345361	-0.204209	0.845172	0.227216	-0.269705	0.98809	0.844672	-0.142713	1.04315	0.696224	-0.1788	0.969458	0.609829	-0.192301	0.861886	0.0778378	-0.319145	1.05916	1.38647	-0.0762182	1.06377	1.29664	-0.0936317	0.980212	1.29691	-0.0612204
213	1.93333	1.01481	1.52723	-0.305774	1.12919	1.4435	-0.294551	1.02661	1.5047	-0.482532	1.07539	1.01337	-0.425656	0.950081	0.223937	-0.372205	1.00928	1.10975	-0.515998	0.873196	1.24444	-0.568726	0.955672	1.07311	-0.537809	0.808479	1.29717	-0.556634	0.796733	1.29695	-0.484024	1.10345	0.0925026	-0.445103	0.90503	1.05212	-0.367347	1.22197	0.445778	-0.405232	1.13624	0.38019	-0.451167	1.11286	0.28239	-0.387993	1.06162	0.855628	-0.492839	1.17787	0.802706	-0.472619	1.16739	0.662541	-0.462728	1.12765	0.118471	-0.344919	0.96757	1.45099	-0.527113	0.901061	1.41758	-0.484448	0.91797	1.35799	-0.544905	1.08277	1.48149	-0.122684	1.06749	1.01037	-0.187243	0.65438	0.154999	-0.284499	1.19508	1.07256	-0.111541	1.05468	1.16485	-0.0439385	1.15367	1.01871	-0.104001	0.962113	1.19319	-0.0368339	0.937708	1.19026	-0.101051	0.8274	0.0462268	-0.213889	0.902121	1.05168	-0.267598	0.941195	0.380403	-0.262617	0.869785	0.352123	-0.203299	0.834684	0.233667	-0.268081	0.98724	0.850743	-0.142826	1.03803	0.701383	-0.17898	0.962224	0.616684	-0.191579	0.847613	0.0780806	-0.318761	1.06208	1.39427	-0.077003	1.06631	1.30425	-0.0943494	0.983271	1.30507	-0.0603291
214	1.94167	1.01572	1.53359	-0.306418	1.12986	1.45014	-0.296029	1.02635	1.51135	-0.482788	1.07575	1.02064	-0.425738	0.971404	0.211937	-0.372188	1.0073	1.1194	-0.516858	0.870214	1.25354	-0.568227	0.953729	1.08235	-0.537888	0.805967	1.3062	-0.555455	0.794986	1.30648	-0.482487	1.13092	0.0861947	-0.441971	0.906042	1.05913	-0.367124	1.22739	0.45027	-0.405483	1.14683	0.378809	-0.451488	1.12969	0.279816	-0.387893	1.06243	0.863602	-0.493238	1.17719	0.809611	-0.473491	1.16438	0.668213	-0.461511	1.15385	0.115694	-0.341945	0.966473	1.4592	-0.526943	0.900264	1.42658	-0.48378	0.91589	1.36653	-0.544771	1.08496	1.48869	-0.124074	1.06822	1.01562	-0.187387	0.645145	0.165323	-0.284026	1.19974	1.08693	-0.11558	1.05844	1.17521	-0.0447352	1.1606	1.03166	-0.106679	0.965241	1.20107	-0.0357603	0.939471	1.19778	-0.0998056	0.811612	0.0478167	-0.213004	0.903305	1.05813	-0.26731	0.931684	0.386689	-0.260916	0.859454	0.358936	-0.20233	0.825139	0.240154	-0.266248	0.986613	0.8567	-0.142849	1.03338	0.706642	-0.178949	0.955659	0.623541	-0.190717	0.833596	0.078307	-0.318401	1.06486	1.402	-0.0778186	1.06868	1.31182	-0.0949543	0.986083	1.31318	-0.0596182
